<svg width="1024" height="1024" viewBox="0 0 1024 1024" fill="none" xmlns="http://www.w3.org/2000/svg">
<rect width="1024" height="1024" />
<path d="M791.788 479.88C809.263 449.716 818 412.887 818 369.392C818 326.6 809.643 290.825 792.927 262.062C776.972 232.599 754.559 209.098 725.688 191.561C697.575 173.321 664.145 160.344 625.396 152.627C587.408 144.209 546.38 140 502.313 140H206V285.205L486.357 285.212C503.832 285.212 520.548 286.264 536.504 288.368C553.218 290.473 568.034 294.683 580.951 300.995C593.866 307.309 604.122 316.078 611.721 327.302C619.319 338.526 623.118 352.907 623.118 370.445C623.118 387.983 619.319 402.715 611.721 414.64C604.122 425.863 593.486 434.984 579.81 441.998C566.895 449.014 552.079 453.923 535.363 456.73C518.649 459.536 501.174 460.939 482.939 460.939H400.884V460.861H206V885H400.884V604.047H497.755C539.542 604.047 579.81 599.838 618.559 591.42C657.307 583.001 691.498 569.673 721.129 551.433C750.76 533.194 774.313 509.343 791.788 479.88Z" fill="#2F4F87"/>
</svg>
